# xmcd
#
# Track frame offsets: 
#        150
#        21002
#        39492
#        56840
#        77172
#        103582
#        128885
#        156945
#        174645
#        203385
#        224395
#        244650
#        260945
#
# Disc length: 3537 seconds
#
# Revision: 0
# Processed by: cddbd v1.4PL0 Copyright (c) Steve Scherf et al.
# Submitted via: ExactAudioCopy v0.90b4
#
DISCID=b50dcf0d
DTITLE=Deja Bleu - The Blues Found Me
DYEAR=2000
DGENRE=
TTITLE0=The Blues Found Me
TTITLE1=Do It Right
TTITLE2=Bleu Theme
TTITLE3=Trouble
TTITLE4=It's Your Turn
TTITLE5=I Can Tell
TTITLE6=Livin' By The Dollar
TTITLE7=Back On Track
TTITLE8=Missin' You (Recorded live at MugZee's)
TTITLE9=Tumblin' Down
TTITLE10=What's Wrong With You
TTITLE11=Rise 'N' Shine
TTITLE12=Take This!
EXTD=
EXTT0=
EXTT1=
EXTT2=
EXTT3=
EXTT4=
EXTT5=
EXTT6=
EXTT7=
EXTT8=
EXTT9=
EXTT10=
EXTT11=
EXTT12=
PLAYORDER=
